<?xml version="1.0" standalone="no"?>
<!DOCTYPE svg PUBLIC "-//W3C//DTD SVG 20010904//EN"
 "http://www.w3.org/TR/2001/REC-SVG-20010904/DTD/svg10.dtd">
<svg version="1.0" xmlns="http://www.w3.org/2000/svg"
 width="1500.000000pt" height="1500.000000pt" viewBox="0 0 1500.000000 1500.000000"
 preserveAspectRatio="xMidYMid meet">
<metadata>
Created by potrace 1.10, written by Peter Selinger 2001-2011
</metadata>
<g transform="translate(0.000000,1500.000000) scale(0.100000,-0.100000)"
fill="#000000" stroke="none">
<path d="M7668 10492 c-141 -2 -168 -5 -168 -17 0 -9 22 -62 49 -118 57 -117
112 -258 131 -335 12 -45 12 -61 -3 -120 -22 -87 -70 -258 -102 -365 -9 -28
-20 -68 -25 -87 -5 -19 -16 -60 -26 -90 -23 -77 -40 -136 -57 -200 -21 -75
-115 -414 -133 -475 -15 -51 -28 -98 -40 -148 l-7 -28 49 3 49 3 42 155 c23
85 47 173 54 195 13 46 34 118 54 190 24 88 48 169 61 210 6 22 20 69 29 105
10 36 21 76 26 90 4 14 22 79 40 145 34 129 47 162 59 149 9 -11 30 -69 40
-114 4 -19 13 -48 18 -65 6 -16 17 -55 26 -85 8 -30 22 -77 29 -105 37 -129
49 -171 92 -325 74 -269 106 -383 121 -425 8 -23 14 -50 14 -61 0 -11 7 -30
16 -42 15 -22 16 -22 324 -22 179 0 311 4 315 9 3 5 -1 29 -8 53 -8 24 -22 72
-32 108 -9 36 -23 83 -29 105 -12 38 -26 84 -60 208 -24 85 -46 160 -56 192
-5 17 -25 91 -45 165 -20 74 -57 205 -81 290 -40 144 -53 189 -89 310 -14 50
-38 140 -55 210 -6 25 -19 107 -29 183 -10 75 -20 139 -22 141 -7 6 -392 12
-571 8z"/>
<path d="M2514 10477 c-2 -7 18 -62 46 -122 55 -119 59 -129 84 -192 43 -113
46 -123 90 -278 7 -27 21 -75 30 -105 8 -30 36 -129 61 -220 25 -91 53 -190
61 -220 18 -62 37 -129 60 -210 8 -30 20 -68 26 -85 5 -16 14 -46 18 -65 5
-19 17 -64 28 -100 11 -36 36 -128 57 -205 21 -77 42 -146 48 -152 7 -10 84
-13 323 -13 173 0 314 2 314 5 0 4 -22 86 -45 165 -7 25 -20 70 -28 100 -16
57 -106 383 -134 480 -8 30 -19 69 -24 85 -4 17 -17 62 -29 100 -12 39 -25 86
-30 105 -5 19 -16 58 -24 85 -89 301 -145 531 -170 700 l-22 150 -367 3 c-295
2 -369 0 -373 -11z"/>
<path d="M4504 10476 c-3 -7 11 -46 31 -87 105 -215 143 -323 262 -749 20 -71
29 -104 47 -165 8 -27 22 -77 31 -110 10 -33 23 -80 30 -105 7 -25 20 -70 29
-100 79 -288 120 -432 131 -470 7 -25 20 -72 29 -105 10 -33 21 -64 25 -68 8
-8 621 -10 629 -2 3 2 -1 24 -7 47 -7 24 -16 57 -21 73 -8 32 -34 122 -55 195
-27 93 -48 167 -68 243 l-21 77 21 78 c22 81 45 163 69 247 8 28 19 66 24 85
5 19 16 58 24 85 8 28 21 75 30 105 47 168 89 319 95 345 21 79 114 319 133
339 4 6 8 21 8 33 0 23 -2 24 -76 21 -56 -2 -79 -7 -85 -18 -4 -8 -15 -67 -25
-130 -15 -106 -42 -229 -63 -290 -5 -14 -17 -54 -26 -90 -10 -36 -23 -85 -30
-110 -35 -118 -49 -166 -90 -312 -25 -87 -45 -160 -45 -163 0 -3 -6 -5 -13 -5
-8 0 -21 26 -32 63 -10 34 -31 107 -47 162 -15 55 -35 125 -44 155 -9 30 -20
69 -26 85 -5 17 -14 46 -18 65 -5 19 -18 69 -30 110 -32 110 -57 241 -70 354
-6 55 -15 105 -21 113 -17 20 -727 19 -735 -1z"/>
<path d="M10811 10481 c-9 -6 -16 -40 -21 -99 -4 -50 -11 -95 -14 -101 -4 -6
-11 -34 -16 -63 -6 -29 -16 -75 -24 -103 -8 -27 -45 -158 -81 -290 -65 -238
-79 -286 -110 -388 -9 -28 -20 -68 -25 -87 -5 -19 -16 -57 -24 -85 -8 -27 -21
-75 -29 -105 -9 -30 -26 -93 -40 -140 -13 -47 -27 -94 -30 -105 -2 -11 -21
-78 -42 -150 -52 -185 -65 -235 -65 -245 0 -15 76 -12 88 3 5 6 20 50 32 97
12 47 35 130 51 185 16 55 36 125 45 155 19 66 36 127 58 200 26 88 62 215
101 360 35 125 65 233 101 355 8 28 19 66 24 85 30 118 80 264 133 390 56 136
57 134 -28 138 -38 1 -76 -2 -84 -7z"/>
<path d="M3133 8214 c-3 -8 2 -45 12 -82 9 -37 21 -85 25 -107 15 -69 38 -115
60 -115 13 0 22 9 26 28 14 59 43 137 52 140 11 3 19 -15 42 -103 12 -48 19
-61 37 -63 22 -3 25 3 70 158 9 30 22 72 31 92 17 42 10 71 -15 66 -13 -2 -25
-26 -41 -78 -13 -41 -25 -81 -28 -89 -9 -27 -32 9 -49 77 -25 100 -46 117 -71
57 -8 -19 -19 -57 -25 -84 -6 -28 -17 -52 -26 -55 -21 -8 -21 -8 -33 52 -18
97 -50 148 -67 106z"/>
<path d="M3958 8216 c-51 -22 -73 -63 -76 -146 -3 -66 -1 -79 20 -110 58 -85
194 -70 234 26 19 46 18 132 -4 174 -29 59 -109 85 -174 56z m116 -67 c46 -54
30 -160 -29 -187 -36 -17 -44 -15 -82 14 -31 23 -33 29 -33 84 0 74 32 120 85
120 25 0 40 -8 59 -31z"/>
<path d="M4535 8208 c-3 -13 -4 -84 -3 -158 3 -131 4 -135 26 -138 21 -3 22
-1 22 82 0 47 4 87 9 91 5 3 22 -21 38 -52 23 -46 34 -59 55 -61 22 -3 30 4
54 47 15 28 30 51 35 51 13 0 19 -31 19 -96 0 -50 3 -64 15 -64 27 0 35 38 35
162 0 189 -30 207 -100 62 -23 -46 -47 -84 -54 -84 -8 0 -30 33 -51 73 -57
108 -88 135 -100 85z"/>
<path d="M5328 8213 c-19 -23 -110 -282 -102 -294 11 -19 36 -8 47 21 9 23 21
33 50 41 47 12 91 0 96 -27 5 -28 21 -44 43 -44 23 0 22 25 -6 95 -8 22 -25
65 -36 95 -12 30 -24 64 -27 75 -6 22 -32 55 -43 55 -4 0 -14 -8 -22 -17z m42
-123 c24 -47 20 -60 -20 -60 -35 0 -43 11 -31 42 5 13 12 31 15 41 8 25 13 22
36 -23z"/>
<path d="M5872 8218 c-14 -14 -17 -275 -3 -297 5 -8 16 -11 25 -8 13 5 16 24
16 102 0 52 2 95 5 95 12 0 43 -39 95 -118 42 -66 58 -82 74 -80 20 3 21 9 24
152 3 157 -5 190 -34 151 -11 -14 -14 -42 -13 -95 3 -102 -13 -103 -76 -3 -70
110 -88 126 -113 101z"/>
<path d="M6542 8212 c-35 -17 -46 -41 -40 -88 3 -29 5 -31 116 -82 25 -12 32
-21 32 -43 0 -36 -47 -55 -97 -38 -54 18 -81 -2 -47 -35 11 -11 35 -16 80 -16
59 0 68 3 95 29 56 56 28 126 -60 156 -61 20 -76 36 -61 64 9 17 20 21 65 21
56 0 69 12 43 38 -17 17 -87 14 -126 -6z"/>
<path d="M7557 8217 c-3 -8 1 -34 8 -58 8 -24 22 -73 31 -109 28 -112 38 -135
59 -135 15 0 24 12 34 45 29 96 37 114 48 117 7 3 15 -8 19 -24 18 -85 41
-138 61 -141 21 -3 28 13 78 182 23 75 25 131 6 131 -13 0 -43 -73 -56 -138
-11 -54 -54 -44 -55 13 0 40 -34 125 -50 125 -16 0 -30 -27 -56 -109 -11 -32
-23 -57 -29 -56 -5 2 -18 32 -28 69 -10 36 -22 73 -26 81 -11 20 -37 24 -44 7z"/>
<path d="M8385 8218 c-98 -55 -114 -209 -30 -288 19 -18 36 -23 78 -23 57 0
87 15 121 61 26 35 26 156 0 201 -30 52 -118 78 -169 49z m102 -53 c55 -39 49
-171 -9 -201 -35 -18 -70 -12 -98 16 -16 16 -20 34 -20 85 0 55 3 68 25 90 30
29 70 33 102 10z"/>
<path d="M8971 8216 c-8 -9 -11 -60 -9 -157 3 -132 5 -144 22 -147 25 -5 36
14 36 65 0 74 41 66 80 -16 18 -40 29 -51 47 -51 29 0 29 11 -3 77 -24 52 -25
56 -10 88 30 63 18 120 -31 140 -45 19 -117 19 -132 1z m121 -61 c9 -19 7 -29
-6 -50 -25 -38 -60 -31 -64 13 -5 47 3 62 33 62 17 0 29 -8 37 -25z"/>
<path d="M9556 8214 c-9 -24 -7 -277 3 -292 12 -20 141 -27 165 -9 29 22 10
37 -48 37 -28 0 -57 5 -64 12 -8 8 -12 50 -12 124 0 119 -4 144 -25 144 -7 0
-16 -7 -19 -16z"/>
<path d="M10126 8214 c-11 -29 -7 -292 5 -300 20 -12 132 -4 156 11 43 28 56
62 57 140 1 85 -16 118 -75 147 -45 23 -135 24 -143 2z m130 -48 c55 -39 50
-172 -8 -202 -16 -8 -39 -14 -51 -12 -21 3 -22 9 -25 102 -1 55 0 106 2 113 7
17 56 17 82 -1z"/>
<path d="M3383 7624 c-5 -14 11 -88 42 -189 7 -22 20 -69 30 -105 9 -36 23
-83 29 -105 7 -22 21 -67 30 -100 10 -33 24 -80 31 -105 7 -25 34 -121 60
-215 26 -93 52 -190 60 -215 7 -25 20 -74 30 -110 9 -36 23 -83 29 -105 7 -22
21 -67 30 -100 9 -33 23 -80 30 -105 8 -25 44 -153 80 -285 37 -132 71 -250
76 -262 l10 -23 353 0 c195 0 356 3 360 6 3 3 -1 24 -9 46 -19 54 -18 181 2
260 9 35 41 151 71 258 30 107 61 220 70 250 8 30 21 75 28 100 14 50 42 148
56 195 4 17 15 53 23 80 16 57 110 392 133 475 20 74 40 145 59 205 22 74 35
138 29 152 -6 17 -60 17 -73 1 -5 -7 -35 -105 -66 -218 -32 -113 -61 -216 -65
-230 -5 -14 -16 -54 -26 -90 -9 -36 -21 -76 -27 -89 -5 -14 -13 -43 -18 -65
-4 -23 -13 -54 -18 -71 -19 -56 -47 -151 -117 -405 -43 -155 -56 -200 -92
-325 -36 -129 -46 -163 -58 -200 -7 -22 -16 -53 -20 -69 -6 -26 -8 -28 -22
-13 -8 8 -21 37 -28 64 -21 77 -115 413 -131 468 -8 28 -19 66 -24 85 -5 19
-18 67 -30 105 -12 39 -25 86 -30 105 -5 19 -16 58 -24 85 -14 47 -100 356
-133 475 -17 65 -35 124 -57 200 -10 30 -21 74 -26 97 -5 24 -16 56 -25 73
l-16 30 -305 0 c-267 0 -305 -2 -311 -16z"/>
<path d="M5367 7628 c-2 -7 2 -31 9 -53 7 -22 19 -65 28 -95 20 -74 45 -158
55 -195 5 -16 26 -91 46 -165 21 -74 49 -173 62 -220 14 -47 31 -110 40 -140
8 -30 21 -77 29 -105 8 -27 19 -66 24 -85 5 -19 16 -57 24 -85 25 -87 63 -219
69 -240 19 -74 108 -392 133 -475 7 -25 21 -73 31 -107 l18 -63 359 0 358 0
-6 28 c-4 15 -10 68 -12 117 -5 91 1 127 51 295 9 30 20 71 25 90 5 19 16 58
24 85 8 28 22 77 31 110 10 33 23 80 30 105 7 25 20 70 29 100 84 304 120 433
132 475 8 28 19 66 24 85 5 19 18 67 30 105 23 78 48 165 60 210 5 17 20 72
35 123 14 51 23 97 20 102 -3 6 -21 10 -40 10 -39 0 -62 -25 -71 -80 -3 -19
-12 -53 -19 -75 -30 -95 -46 -150 -90 -310 -25 -93 -53 -195 -62 -225 -38
-135 -43 -153 -88 -310 -8 -25 -21 -70 -29 -100 -9 -30 -29 -100 -45 -155 -16
-55 -31 -109 -34 -120 -10 -43 -88 -323 -104 -373 -9 -29 -20 -51 -26 -49 -10
3 -30 56 -47 127 -5 19 -16 58 -24 85 -20 68 -65 226 -120 430 -26 94 -51 181
-55 195 -5 14 -17 54 -26 90 -10 36 -23 85 -30 110 -8 25 -21 70 -29 100 -9
30 -30 102 -46 160 -33 116 -41 145 -95 340 -21 74 -42 141 -47 148 -8 9 -84
12 -318 12 -238 0 -309 -3 -313 -12z"/>
<path d="M8365 7630 c-4 -6 0 -32 9 -58 8 -26 22 -69 30 -97 7 -27 21 -75 30
-105 8 -30 36 -129 61 -220 62 -225 105 -379 117 -415 6 -16 14 -46 19 -65 4
-19 15 -57 23 -85 29 -94 53 -180 95 -335 23 -85 46 -166 50 -180 5 -14 16
-54 26 -90 9 -36 23 -83 29 -105 7 -22 20 -65 29 -95 8 -30 24 -83 34 -117
l18 -63 359 0 358 0 -6 28 c-32 142 -31 178 5 312 11 41 24 91 28 110 5 19 14
49 19 65 6 17 17 55 26 85 9 30 29 102 46 160 16 58 50 179 75 270 48 172 68
244 90 320 8 25 21 72 31 105 9 33 22 78 29 100 7 22 20 69 30 105 9 36 21 76
26 90 28 84 70 262 65 275 -7 20 -60 20 -76 0 -11 -14 -36 -89 -60 -185 -5
-19 -16 -57 -24 -85 -40 -138 -79 -275 -146 -520 -23 -82 -47 -168 -54 -190
-8 -22 -21 -69 -31 -105 -9 -36 -23 -83 -30 -105 -7 -22 -20 -69 -30 -105 -9
-36 -21 -76 -26 -90 -4 -14 -29 -101 -55 -195 -49 -179 -61 -213 -73 -199 -7
9 -24 62 -56 174 -8 30 -20 69 -26 87 -8 28 -25 87 -49 178 -4 17 -33 120 -64
230 -31 110 -63 227 -72 260 -9 33 -22 78 -29 100 -7 22 -19 65 -28 95 -23 82
-49 170 -63 215 -6 22 -19 67 -28 100 -59 220 -96 339 -108 346 -20 13 -615
11 -623 -1z"/>
</g>
</svg>
